<?xml version="1.0" encoding="UTF-8" standalone="no"?>
<!DOCTYPE svg PUBLIC "-//W3C//DTD SVG 1.1//EN" "http://www.w3.org/Graphics/SVG/1.1/DTD/svg11.dtd">
<svg xmlns="http://www.w3.org/2000/svg" width="100%" height="100%" viewBox="0 0 158 123" version="1.1" xml:space="preserve" style="fill-rule:evenodd;clip-rule:evenodd;stroke-linejoin:round;stroke-miterlimit:2;">
    <g transform="matrix(1,0,0,1,-1554.373925,-88418.380212)">
        <g transform="matrix(8.55241,0,0,9.469407,-173.255111,87563.260623)">
            <g transform="matrix(1.846926,0,0,1.48642,-200.912752,-77.293583)">
                <g transform="matrix(0.060636,0,0,0.068455,218.102885,112.933749)">
                    <g transform="matrix(34.8897,0,0,34.8897,164.504935,123.9694)">
                    </g>
                    <path d="M427 750V447C392 485 341 506 279 506C139 506 39 396 39 247C39 98 139 -12 279 -12C347 -12 404 14 438 61V0H562V750ZM304 111C233 111 176 164 176 248C176 332 234 384 304 384C366 384 429 341 429 247C429 152 366 111 304 111Z" transform="translate(0.0000,123.9690) scale(0.034890,-0.034890)" style="fill:white;fill-rule:nonzero;" /><path d="M270 506C183 506 112 473 54 404L124 321C165 364 202 389 255 389C316 389 347 356 347 302V280H223C109 280 36 226 36 136C36 52 99 -12 207 -12C271 -12 323 11 358 48V0H482V294C482 435 396 506 270 506ZM243 87C201 87 172 107 172 141C172 174 197 191 241 191H347V185C347 127 300 87 243 87Z" transform="translate(21.0730,123.9690) scale(0.034890,-0.034890)" style="fill:white;fill-rule:nonzero;" /><path d="M327 501C273 501 224 478 191 436V495H67V0H202V247C202 336 257 376 335 376H371V495C358 499 345 501 327 501Z" transform="translate(39.2160,123.9690) scale(0.034890,-0.034890)" style="fill:white;fill-rule:nonzero;" /><path d="M643 506C573 506 515 478 478 435C447 480 398 506 331 506C272 506 224 485 191 451V495H67V0H202V288C202 347 239 384 293 384C346 384 381 347 381 288V0H516V291C516 346 553 384 607 384C660 384 695 347 695 288V0H830V307C830 426 761 506 643 506Z" transform="translate(51.8810,123.9690) scale(0.034890,-0.034890)" style="fill:white;fill-rule:nonzero;" /><path d="M227 -12C335 -12 420 44 420 146C420 223 370 261 281 297L233 317C197 332 181 342 181 361C181 385 202 396 234 396C274 396 313 379 345 349L413 432C368 482 307 506 235 506C130 506 53 453 53 358C53 280 104 241 188 207L241 185C271 172 292 163 292 140C292 112 263 99 229 99C176 99 130 125 90 166L22 84C66 26 139 -12 227 -12Z" transform="translate(82.1300,123.9690) scale(0.034890,-0.034890)" style="fill:white;fill-rule:nonzero;" /><path d="M321 109C259 109 229 129 229 186V381H369V495H229V620H94V495H16V381H94V174C94 47 170 -12 292 -12C327 -12 357 -7 385 0V113C359 111 337 109 321 109Z" transform="translate(97.1330,123.9690) scale(0.034890,-0.034890)" style="fill:white;fill-rule:nonzero;" /><path d="M270 506C183 506 112 473 54 404L124 321C165 364 202 389 255 389C316 389 347 356 347 302V280H223C109 280 36 226 36 136C36 52 99 -12 207 -12C271 -12 323 11 358 48V0H482V294C482 435 396 506 270 506ZM243 87C201 87 172 107 172 141C172 174 197 191 241 191H347V185C347 127 300 87 243 87Z" transform="translate(110.7750,123.9690) scale(0.034890,-0.034890)" style="fill:white;fill-rule:nonzero;" /><path d="M427 750V447C392 485 341 506 279 506C139 506 39 396 39 247C39 98 139 -12 279 -12C347 -12 404 14 438 61V0H562V750ZM304 111C233 111 176 164 176 248C176 332 234 384 304 384C366 384 429 341 429 247C429 152 366 111 304 111Z" transform="translate(128.9170,123.9690) scale(0.034890,-0.034890)" style="fill:white;fill-rule:nonzero;" /><path d="M321 109C259 109 229 129 229 186V381H369V495H229V620H94V495H16V381H94V174C94 47 170 -12 292 -12C327 -12 357 -7 385 0V113C359 111 337 109 321 109Z" transform="translate(149.9910,123.9690) scale(0.034890,-0.034890)" style="fill:white;fill-rule:nonzero;" /></g>
                <g transform="matrix(0.060636,0,0,0.068455,220.22861,114.891444)">
                    <path d="M0,45.708L0,45.699C0.003,41.295 3.568,37.727 7.969,37.715L-3.595,37.728L-3.595,37.699C-7.674,37.699 -11.292,36.081 -13.879,33.453C-16.531,30.768 -18.153,27.023 -18.153,22.85C-18.153,18.678 -16.531,14.925 -13.879,12.241C-11.292,9.627 -7.674,8.002 -3.595,8.002C-2.01,8.002 -0.547,8.22 0.766,8.619C2.116,9.04 3.44,9.686 4.689,10.535C8.357,13.002 13.335,12.037 15.807,8.372C18.278,4.708 17.312,-0.271 13.644,-2.746C11.188,-4.4 8.419,-5.729 5.396,-6.65C2.486,-7.543 -0.533,-8.022 -3.595,-8.022C-12.115,-8.022 -19.746,-4.567 -25.276,1.035C-30.803,6.63 -34.185,14.352 -34.185,22.85C-34.185,31.349 -30.803,39.063 -25.276,44.658C-19.746,50.261 -12.115,53.73 -3.595,53.722L-3.595,53.693L9.729,53.68L7.986,53.679C3.579,53.679 0.003,50.111 0,45.708" style="fill:white;fill-rule:nonzero;" />
                </g>
                <g transform="matrix(0.060636,0,0,0.068455,226.225345,118.559112)">
                    <path d="M0,-61.6C0.593,-61.6 1.18,-61.577 1.765,-61.543C1.195,-61.671 0.608,-61.752 0,-61.752L-60.492,-61.752C-65.667,-61.752 -70.366,-59.619 -73.77,-56.186C-77.177,-52.761 -79.281,-48.043 -79.281,-42.891C-79.281,-37.702 -77.18,-33.007 -73.78,-29.602C-70.38,-26.199 -65.681,-24.102 -60.492,-24.095L-53.173,-24.095C-52.052,-24.095 -51.044,-23.644 -50.314,-22.904C-49.57,-22.157 -49.109,-21.104 -49.109,-19.936C-49.109,-18.819 -49.563,-17.803 -50.3,-17.07C-51.036,-16.336 -52.045,-15.879 -53.173,-15.879C-53.406,-15.879 -53.646,-15.872 -53.874,-15.858L-58.483,-15.859C-54.175,-15.747 -50.706,-12.238 -50.706,-7.896C-50.706,-3.492 -54.284,0.087 -58.689,0.087L-89.169,0.102L-53.878,0.115C-53.646,0.137 -53.406,0.144 -53.173,0.144C-47.622,0.152 -42.6,-2.105 -38.968,-5.734C-35.332,-9.37 -33.082,-14.392 -33.082,-19.936C-33.082,-25.452 -35.335,-30.502 -38.982,-34.175C-42.606,-37.832 -47.607,-40.111 -53.123,-40.126L-60.492,-40.126C-61.258,-40.126 -61.944,-40.438 -62.448,-40.932C-62.949,-41.432 -63.257,-42.121 -63.257,-42.891C-63.257,-43.689 -62.942,-44.408 -62.438,-44.923C-61.944,-45.416 -61.258,-45.721 -60.492,-45.721L-26.786,-45.721C-25.404,-48.209 -23.687,-50.496 -21.677,-52.528C-16.147,-58.138 -8.513,-61.6 0,-61.6" style="fill:white;fill-rule:nonzero;" />
                </g>
                <g transform="matrix(0.060636,0,0,0.068455,223.150756,118.020626)">
                    <path d="M0,-0.03C0,-4.372 -3.469,-7.881 -7.777,-7.992L-37.905,-7.998L-40.223,-7.996C-44.624,-7.985 -48.189,-4.416 -48.192,-0.013L-48.192,-0.004C-48.189,4.399 -44.613,7.967 -40.206,7.967L-38.463,7.968L-7.983,7.953C-3.578,7.953 0,4.375 0,-0.03" style="fill:white;fill-rule:nonzero;" />
                </g>
                <g transform="matrix(0.060636,0,0,0.068455,227.610135,118.56925)">
                    <path d="M0,-84.978C-4.427,-84.978 -8.012,-81.386 -8.012,-76.959L-8.012,-30.876C-8.012,-26.753 -9.674,-23.031 -12.355,-20.346C-15.021,-17.682 -18.723,-16.027 -22.838,-16.027C-26.913,-16.027 -30.531,-17.645 -33.121,-20.273C-35.771,-22.958 -37.393,-26.703 -37.393,-30.876C-37.393,-35.041 -35.771,-38.786 -33.121,-41.471C-35.771,-38.786 -37.389,-35.332 -37.389,-31.166L-53.407,-31.137C-53.407,-31.049 -53.42,-30.964 -53.42,-30.876C-53.42,-22.37 -50.041,-14.656 -44.515,-9.061C-39.002,-3.481 -31.395,-0.027 -22.911,0L-22.765,0C-14.296,-0.02 -6.605,-3.481 -1.023,-9.075C4.558,-14.663 8.016,-22.37 8.016,-30.876L8.016,-76.959C8.016,-81.386 4.427,-84.978 0,-84.978" style="fill:white;fill-rule:nonzero;" />
                </g>
                <g transform="matrix(0.060636,0,0,0.068455,226.332349,116.97166)">
                    <path d="M0,-38.353C-0.585,-38.387 -1.172,-38.41 -1.765,-38.41C-10.277,-38.41 -17.912,-34.948 -23.441,-29.338C-25.432,-27.327 -27.13,-25.031 -28.505,-22.531C-30.729,-18.489 -32.061,-13.891 -32.286,-9C-32.331,-8.656 -32.363,-8.307 -32.363,-7.949C-32.363,-3.528 -28.778,0.057 -24.356,0.057C-19.977,0.057 -16.422,-3.463 -16.356,-7.828L-16.315,-7.828C-16.315,-11.994 -14.697,-15.448 -12.048,-18.133C-9.458,-20.761 -5.84,-22.379 -1.765,-22.379C2.351,-22.379 6.052,-20.724 8.718,-18.061C11.399,-15.375 13.062,-11.653 13.062,-7.538L13.062,-34.592C9.143,-36.755 4.709,-38.084 0,-38.353" style="fill:white;fill-rule:nonzero;" />
                </g>
            </g>
        </g>
    </g>
</svg>
