<?xml version="1.0" encoding="UTF-8" standalone="no"?>
<!DOCTYPE svg PUBLIC "-//W3C//DTD SVG 1.1//EN" "http://www.w3.org/Graphics/SVG/1.1/DTD/svg11.dtd">
<svg xmlns="http://www.w3.org/2000/svg" xmlns:serif="http://www.serif.com/" width="100%" height="100%" viewBox="0 0 1593 516" version="1.1" xml:space="preserve" style="fill-rule:evenodd;clip-rule:evenodd;stroke-linejoin:round;stroke-miterlimit:2;">
    <g transform="matrix(1,0,0,1,-959.416278,-83484.884909)">
        <g transform="matrix(1.898148,0,0,0.722222,735.662305,83367.865806)">
            <g id="CSD-Fahne" serif:id="CSD Fahne" transform="matrix(0.235261,0,0,0.370511,-879.672597,196.331447)">
                <g transform="matrix(8.484109,0,0,10.04232,-8162.838502,-13920.5548)">
                    <rect x="1627.781" y="1436.713" width="210.682" height="23.088" style="fill:rgb(226,27,95);" />
                </g>
                <g transform="matrix(8.484109,0,0,10.881251,-8162.838502,-14510.761294)">
                    <rect x="1627.781" y="1436.713" width="210.682" height="23.088" style="fill:rgb(73,171,79);" />
                </g>
                <g transform="matrix(8.484109,0,0,10.01006,-8162.838502,-13662.780351)">
                    <rect x="1627.781" y="1436.713" width="210.682" height="23.088" style="fill:rgb(242,158,30);" />
                </g>
                <g transform="matrix(8.484109,0,0,10.058327,-8162.838502,-13097.850848)">
                    <rect x="1627.781" y="1436.713" width="210.682" height="23.088" style="fill:rgb(37,152,208);" />
                </g>
                <g transform="matrix(8.484109,0,0,9.157391,-8162.838502,-12226.314977)">
                    <rect x="1627.781" y="1436.713" width="210.682" height="23.088" style="fill:rgb(252,221,18);" />
                </g>
                <g transform="matrix(8.484109,0,0,9.157391,-8162.838502,-11592.038678)">
                    <rect x="1627.781" y="1436.713" width="210.682" height="23.088" style="fill:rgb(95,74,149);" />
                </g>
            </g>
        </g>
        <g transform="matrix(1.898148,0,0,0.722222,735.662305,83367.865806)">
            <g transform="matrix(0.496147,0,0,1.584716,-317.582006,-132216.350258)">
                <rect x="2323" y="83823" width="246" height="161.883" style="fill:rgb(95,74,149);" />
            </g>
        </g>
        <g transform="matrix(1.898148,0,0,0.722222,735.662305,83367.865806)">
            <g transform="matrix(0.366212,0,0,0.962482,581.089395,326.266125)"><g id="csd-flag-date"></g><g transform="matrix(117.85935,0,0,117.85935,989.712336,523.344547)">
                </g></g>
        </g>
        <g transform="matrix(1.898148,0,0,0.722222,735.662305,83367.865806)">
            <g transform="matrix(0.221746,0,0,4.832742,-380.950451,-4572.192365)">
                <rect x="3742.573" y="1026.061" width="402.124" height="96.805" style="fill-opacity:0.12;" />
            </g>
        </g>
        <g transform="matrix(1.898148,0,0,0.722222,735.662305,83367.865806)">
            <g transform="matrix(0.221746,0,0,4.832742,-380.950451,-4692.321367)">
                <path d="M4144.697,1026.061L3742.573,1050.918L3742.573,1147.724L4144.697,1122.866L4144.697,1026.061Z" style="fill:rgb(190,15,79);" />
            </g>
        </g>
        <g transform="matrix(1.898148,0,0,0.722222,735.662305,83367.865806)">
            <g transform="matrix(1.045045,0,0,4.832742,-3793.275389,-4692.321367)">
                <rect x="3742.573" y="1026.061" width="402.124" height="96.805" style="fill:rgb(228,27,95);" />
            </g>
        </g>
        <g transform="matrix(1.898148,0,0,0.722222,735.662305,83367.865806)">
            <g transform="matrix(0.883324,0,0,2.321557,-253.407899,-869.957807)">
                <path d="M389 -12C517 -12 624 51 681 152L579 224C535 154 473 113 390 113C267 113 177 202 177 329C177 457 267 547 390 547C473 547 535 506 579 436L681 508C623 609 517 672 390 672C193 672 38 524 38 330C38 136 193 -12 389 -12Z" transform="translate(432.6400,550.7730) scale(0.065549,-0.065549)" style="fill:white;fill-rule:nonzero;" /><path d="M76 0H211V285H503V0H638V660H503V407H211V660H76Z" transform="translate(479.8353,550.7730) scale(0.065549,-0.065549)" style="fill:white;fill-rule:nonzero;" /><path d="M633 0 446 259C517 294 562 362 562 447C562 576 463 660 324 660H76V0H211V233H310L481 0ZM211 541H324C387 541 424 502 424 447C424 390 387 352 324 352H211Z" transform="translate(526.5717,550.7730) scale(0.065549,-0.065549)" style="fill:white;fill-rule:nonzero;" /><path d="M76 0H211V660H76Z" transform="translate(568.5231,550.7730) scale(0.065549,-0.065549)" style="fill:white;fill-rule:nonzero;" /><path d="M285 -12C416 -12 516 63 516 186C516 280 457 333 353 379L278 412C230 434 201 450 201 488C201 532 239 552 283 552C337 552 377 524 409 476L501 547C462 619 388 672 283 672C159 672 64 599 64 485C64 390 133 336 224 295L295 263C347 239 379 224 379 181C379 135 343 108 285 108C206 108 159 154 123 204L30 134C79 46 171 -12 285 -12Z" transform="translate(587.2701,550.7730) scale(0.065549,-0.065549)" style="fill:white;fill-rule:nonzero;" /><path d="M225 0H360V538H572V660H14V538H225Z" transform="translate(623.9120,550.7730) scale(0.065549,-0.065549)" style="fill:white;fill-rule:nonzero;" /><path d="M388 -12C582 -12 740 136 740 330C740 524 582 672 388 672C194 672 38 524 38 330C38 136 194 -12 388 -12ZM389 113C266 113 177 202 177 330C177 457 266 547 389 547C510 547 601 457 601 330C601 202 510 113 389 113Z" transform="translate(661.4040,550.7730) scale(0.065549,-0.065549)" style="fill:white;fill-rule:nonzero;" /><path d="M76 0H211V233H324C463 233 562 320 562 447C562 576 463 660 324 660H76ZM211 351V541H324C387 541 424 502 424 447C424 390 387 351 324 351Z" transform="translate(712.4011,550.7730) scale(0.065549,-0.065549)" style="fill:white;fill-rule:nonzero;" /><path d="M76 0H211V285H503V0H638V660H503V407H211V660H76Z" transform="translate(751.3372,550.7730) scale(0.065549,-0.065549)" style="fill:white;fill-rule:nonzero;" /><path d="M76 0H532V122H211V289H438V404H211V538H520V660H76Z" transform="translate(798.0737,550.7730) scale(0.065549,-0.065549)" style="fill:white;fill-rule:nonzero;" /><path d="M633 0 446 259C517 294 562 362 562 447C562 576 463 660 324 660H76V0H211V233H310L481 0ZM211 541H324C387 541 424 502 424 447C424 390 387 352 324 352H211Z" transform="translate(835.6332,550.7730) scale(0.065549,-0.065549)" style="fill:white;fill-rule:nonzero;" /><path d="M285 -12C416 -12 516 63 516 186C516 280 457 333 353 379L278 412C230 434 201 450 201 488C201 532 239 552 283 552C337 552 377 524 409 476L501 547C462 619 388 672 283 672C159 672 64 599 64 485C64 390 133 336 224 295L295 263C347 239 379 224 379 181C379 135 343 108 285 108C206 108 159 154 123 204L30 134C79 46 171 -12 285 -12Z" transform="translate(432.6400,611.8870) scale(0.065549,-0.065549)" style="fill:white;fill-rule:nonzero;" /><path d="M225 0H360V538H572V660H14V538H225Z" transform="translate(469.2819,611.8870) scale(0.065549,-0.065549)" style="fill:white;fill-rule:nonzero;" /><path d="M633 0 446 259C517 294 562 362 562 447C562 576 463 660 324 660H76V0H211V233H310L481 0ZM211 541H324C387 541 424 502 424 447C424 390 387 352 324 352H211Z" transform="translate(508.2830,611.8870) scale(0.065549,-0.065549)" style="fill:white;fill-rule:nonzero;" /><path d="M76 0H532V122H211V289H438V404H211V538H520V660H76Z" transform="translate(550.2340,611.8870) scale(0.065549,-0.065549)" style="fill:white;fill-rule:nonzero;" /><path d="M76 0H532V122H211V289H438V404H211V538H520V660H76Z" transform="translate(585.8270,611.8870) scale(0.065549,-0.065549)" style="fill:white;fill-rule:nonzero;" /><path d="M225 0H360V538H572V660H14V538H225Z" transform="translate(625.3530,611.8870) scale(0.065549,-0.065549)" style="fill:white;fill-rule:nonzero;" /><path d="M76 0H292C504 0 652 137 652 332C652 530 504 660 292 660H76ZM211 122V538H291C424 538 513 462 513 332C513 205 424 122 291 122Z" transform="translate(680.7410,611.8870) scale(0.065549,-0.065549)" style="fill:white;fill-rule:nonzero;" /><path d="M502 0H647L353 672H308L13 0H158L195 86H465ZM418 197H242L330 420Z" transform="translate(724.9870,611.8870) scale(0.065549,-0.065549)" style="fill:white;fill-rule:nonzero;" /><path d="M607 660H458L313 398L167 660H17L245 259V0H380V260Z" transform="translate(762.7430,611.8870) scale(0.065549,-0.065549)" style="fill:white;fill-rule:nonzero;" /><g transform="matrix(65.54866,0,0,65.54866,811.904089,673.000806)">
                </g>
                <path d="M76 0H292C504 0 652 137 652 332C652 530 504 660 292 660H76ZM211 122V538H291C424 538 513 462 513 332C513 205 424 122 291 122Z" transform="translate(432.6400,673.0010) scale(0.065549,-0.065549)" style="fill:white;fill-rule:nonzero;" /><path d="M502 0H647L353 672H308L13 0H158L195 86H465ZM418 197H242L330 420Z" transform="translate(476.2290,673.0010) scale(0.065549,-0.065549)" style="fill:white;fill-rule:nonzero;" /><path d="M633 0 446 259C517 294 562 362 562 447C562 576 463 660 324 660H76V0H211V233H310L481 0ZM211 541H324C387 541 424 502 424 447C424 390 387 352 324 352H211Z" transform="translate(520.8680,673.0010) scale(0.065549,-0.065549)" style="fill:white;fill-rule:nonzero;" /><path d="M678 672 399 315 120 672H76V0H211V352L377 144H421L587 352V0H722V672Z" transform="translate(562.8194,673.0010) scale(0.065549,-0.065549)" style="fill:white;fill-rule:nonzero;" /><path d="M285 -12C416 -12 516 63 516 186C516 280 457 333 353 379L278 412C230 434 201 450 201 488C201 532 239 552 283 552C337 552 377 524 409 476L501 547C462 619 388 672 283 672C159 672 64 599 64 485C64 390 133 336 224 295L295 263C347 239 379 224 379 181C379 135 343 108 285 108C206 108 159 154 123 204L30 134C79 46 171 -12 285 -12Z" transform="translate(615.1275,673.0010) scale(0.065549,-0.065549)" style="fill:white;fill-rule:nonzero;" /><path d="M225 0H360V538H572V660H14V538H225Z" transform="translate(652.4240,673.0010) scale(0.065549,-0.065549)" style="fill:white;fill-rule:nonzero;" /><path d="M502 0H647L353 672H308L13 0H158L195 86H465ZM418 197H242L330 420Z" transform="translate(685.8540,673.0010) scale(0.065549,-0.065549)" style="fill:white;fill-rule:nonzero;" /><path d="M76 0H292C504 0 652 137 652 332C652 530 504 660 292 660H76ZM211 122V538H291C424 538 513 462 513 332C513 205 424 122 291 122Z" transform="translate(729.1820,673.0010) scale(0.065549,-0.065549)" style="fill:white;fill-rule:nonzero;" /><path d="M225 0H360V538H572V660H14V538H225Z" transform="translate(773.5580,673.0010) scale(0.065549,-0.065549)" style="fill:white;fill-rule:nonzero;" /></g>
        </g>
        <g transform="matrix(1.898148,0,0,0.722222,735.662305,83367.865806)">
            <g id="text" transform="matrix(0.83751,0,0,2.033003,-392.777658,-104.348599)">
                <g transform="matrix(45.664868,0,0,49.4417,611.7539,168.551628)">
                    <path d="M0.404,-0.495L0.279,-0.215L0.154,-0.495L0.012,-0.495L0.257,0.012L0.302,0.012L0.547,-0.495L0.404,-0.495Z" style="fill:white;fill-rule:nonzero;" />
                </g>
                <g transform="matrix(45.664868,0,0,49.4417,635.453966,168.551628)">
                    <path d="M0.134,-0.592C0.182,-0.592 0.221,-0.628 0.221,-0.675C0.221,-0.723 0.182,-0.759 0.134,-0.759C0.086,-0.759 0.048,-0.723 0.048,-0.675C0.048,-0.628 0.086,-0.592 0.134,-0.592ZM0.067,-0L0.202,-0L0.202,-0.495L0.067,-0.495L0.067,-0Z" style="fill:white;fill-rule:nonzero;" />
                </g>
                <g transform="matrix(45.664868,0,0,49.4417,645.454573,168.551628)">
                    <path d="M0.531,-0.276C0.531,-0.404 0.437,-0.506 0.298,-0.506C0.152,-0.506 0.039,-0.393 0.039,-0.247C0.039,-0.101 0.153,0.012 0.31,0.012C0.386,0.012 0.452,-0.015 0.508,-0.062L0.452,-0.154C0.412,-0.123 0.368,-0.104 0.314,-0.104C0.242,-0.104 0.191,-0.139 0.175,-0.202L0.522,-0.202C0.526,-0.219 0.531,-0.248 0.531,-0.276ZM0.293,-0.397C0.35,-0.397 0.399,-0.36 0.4,-0.297L0.175,-0.297C0.19,-0.359 0.236,-0.397 0.293,-0.397Z" style="fill:white;fill-rule:nonzero;" />
                </g>
                <g transform="matrix(45.664868,0,0,49.4417,669.611288,168.551628)">
                    <rect x="0.067" y="-0.75" width="0.135" height="0.75" style="fill:white;fill-rule:nonzero;" />
                </g>
                <g transform="matrix(45.664868,0,0,49.4417,679.611894,168.551628)">
                    <path d="M0.35,-0.506C0.288,-0.506 0.237,-0.485 0.202,-0.447L0.202,-0.75L0.067,-0.75L0.067,-0L0.191,-0L0.191,-0.061C0.225,-0.015 0.282,0.012 0.35,0.012C0.49,0.012 0.59,-0.098 0.59,-0.247C0.59,-0.396 0.49,-0.506 0.35,-0.506ZM0.325,-0.111C0.263,-0.111 0.2,-0.152 0.2,-0.247C0.2,-0.341 0.262,-0.384 0.325,-0.384C0.395,-0.384 0.453,-0.332 0.453,-0.248C0.453,-0.164 0.396,-0.111 0.325,-0.111Z" style="fill:white;fill-rule:nonzero;" />
                </g>
                <g transform="matrix(45.664868,0,0,49.4417,706.051852,168.551628)">
                    <path d="M0.291,0.012C0.42,0.012 0.518,-0.078 0.518,-0.218L0.518,-0.495L0.383,-0.495L0.383,-0.207C0.383,-0.149 0.342,-0.112 0.291,-0.112C0.238,-0.112 0.197,-0.149 0.197,-0.207L0.197,-0.495L0.062,-0.495L0.062,-0.218C0.062,-0.078 0.16,0.012 0.291,0.012Z" style="fill:white;fill-rule:nonzero;" />
                </g>
                <g transform="matrix(45.664868,0,0,49.4417,730.254232,168.551628)">
                    <path d="M0.336,-0.506C0.275,-0.506 0.225,-0.484 0.191,-0.45L0.191,-0.495L0.067,-0.495L0.067,-0L0.202,-0L0.202,-0.289C0.202,-0.346 0.241,-0.385 0.296,-0.385C0.351,-0.385 0.388,-0.346 0.388,-0.289L0.388,-0L0.522,-0L0.522,-0.307C0.522,-0.426 0.452,-0.506 0.336,-0.506Z" style="fill:white;fill-rule:nonzero;" />
                </g>
                <g transform="matrix(45.664868,0,0,49.4417,755.141585,168.551628)">
                    <path d="M0.321,-0.109C0.259,-0.109 0.229,-0.129 0.229,-0.186L0.229,-0.381L0.369,-0.381L0.369,-0.495L0.229,-0.495L0.229,-0.62L0.094,-0.62L0.094,-0.495L0.016,-0.495L0.016,-0.381L0.094,-0.381L0.094,-0.174C0.094,-0.047 0.17,0.012 0.292,0.012C0.327,0.012 0.357,0.007 0.385,-0L0.385,-0.113C0.359,-0.111 0.337,-0.109 0.321,-0.109Z" style="fill:white;fill-rule:nonzero;" />
                </g>
            </g>
        </g>
    </g>
</svg>
